<?xml version="1.0" encoding="UTF-8"?>
<svg width="280" height="280" viewBox="0 0 280 280" fill="none" xmlns="http://www.w3.org/2000/svg">
  <!-- Background -->
  <rect width="280" height="280" fill="#FAF4F0"/>
  
  <!-- Cloud shape -->
  <path d="M220 170C234.5 170 246 158.5 246 144C246 129.5 234.5 118 220 118C219.3 118 218.6 118 217.9 118.1C214.4 104.2 202 94 187 94C171.5 94 158.8 104.9 156 119.2C152.4 116.7 148.1 115.3 143.5 115.3C132.9 115.3 124.2 123.2 123 133.4C115.2 136.6 110 144.3 110 153C110 165.2 120.2 175 132.5 175" stroke="#4A4656" stroke-width="9" stroke-linecap="round"/>
  
  <!-- Stroller -->
  <circle cx="160" cy="210" r="14" fill="#9B9E8A" stroke="#4A4656" stroke-width="9"/>
  <circle cx="220" cy="210" r="14" fill="#9B9E8A" stroke="#4A4656" stroke-width="9"/>
  <path d="M235 210H240C242.8 210 245 207.8 245 205V195C245 192.2 242.8 190 240 190H235" stroke="#4A4656" stroke-width="9" stroke-linecap="round"/>
  <path d="M190 130V210" stroke="#4A4656" stroke-width="9"/>
  <path d="M145 170H235" stroke="#4A4656" stroke-width="9"/>
  <path d="M145 130C145 130 167 130 190 130C213 130 190 170 190 170H145V130Z" fill="#9B9E8A" stroke="#4A4656" stroke-width="9"/>
  <path d="M145 130H190L190 170" fill="#D9DFCC" stroke="#4A4656" stroke-width="9"/>
  
  <!-- Text -->
  <text x="140" y="260" font-family="serif" font-size="48" font-weight="700" text-anchor="middle" fill="#4A4656">mina</text>
</svg> 