<svg width="280" height="280" viewBox="0 0 280 280" fill="none" xmlns="http://www.w3.org/2000/svg">
    <!-- Background -->
    <rect width="280" height="280" fill="#FAF4F0" opacity="0"/>
    
    <!-- Cloud shape -->
    <path d="M220 170C234.5 170 246 158.5 246 144C246 129.5 234.5 118 220 118C219.3 118 218.6 118 217.9 118.1C214.4 104.2 202 94 187 94C171.5 94 158.8 104.9 156 119.2C152.4 116.7 148.1 115.3 143.5 115.3C132.9 115.3 124.2 123.2 123 133.4C115.2 136.6 110 144.3 110 153C110 165.2 120.2 175 132.5 175" stroke="#4A4656" stroke-width="9" stroke-linecap="round"/>
    
    <!-- Stroller -->
    <circle cx="160" cy="210" r="14" fill="#9B9E8A" stroke="#4A4656" stroke-width="9"/>
    <circle cx="220" cy="210" r="14" fill="#9B9E8A" stroke="#4A4656" stroke-width="9"/>
    <path d="M235 210H240C242.8 210 245 207.8 245 205V195C245 192.2 242.8 190 240 190H235" stroke="#4A4656" stroke-width="9" stroke-linecap="round"/>
    <path d="M190 130V210" stroke="#4A4656" stroke-width="9"/>
    <path d="M145 170H235" stroke="#4A4656" stroke-width="9"/>
    <path d="M145 130C145 130 167 130 190 130C213 130 190 170 190 170H145V130Z" fill="#9B9E8A" stroke="#4A4656" stroke-width="9"/>
    <path d="M145 130H190L190 170" fill="#D9DFCC" stroke="#4A4656" stroke-width="9"/>
    
    <!-- Text -->
    <path d="M103.44 260V234.7H106.04L106.68 238.44C107.52 237 108.52 235.9 109.68 235.14C110.84 234.38 112.28 234 114 234C115.83 234 117.34 234.5 118.52 235.5C119.7 236.5 120.55 237.84 121.08 239.5C121.61 241.17 121.88 243.03 121.88 245.08V260H118.76V245.68C118.76 242.75 118.22 240.5 117.14 238.94C116.06 237.38 114.43 236.6 112.26 236.6C110.53 236.6 109.08 237 107.9 237.8C106.73 238.6 105.84 239.67 105.24 241C104.64 242.33 104.34 243.78 104.34 245.34V260H103.44Z" fill="#4A4656"/>
    <path d="M134.62 260V234.7H137.44V260H134.62ZM136.04 228.6C135.38 228.6 134.84 228.4 134.42 228C134 227.57 133.8 227.03 133.8 226.38C133.8 225.73 134 225.2 134.42 224.78C134.84 224.36 135.38 224.16 136.04 224.16C136.7 224.16 137.24 224.37 137.66 224.8C138.08 225.2 138.28 225.72 138.28 226.38C138.28 227.03 138.08 227.57 137.66 228C137.24 228.4 136.7 228.6 136.04 228.6Z" fill="#4A4656"/>
    <path d="M150.37 260V234.7H152.97L153.61 238.44C154.45 237 155.45 235.9 156.61 235.14C157.77 234.38 159.21 234 160.93 234C162.76 234 164.27 234.5 165.45 235.5C166.63 236.5 167.48 237.84 168.01 239.5C168.54 241.17 168.81 243.03 168.81 245.08V260H165.69V245.68C165.69 242.75 165.15 240.5 164.07 238.94C162.99 237.38 161.36 236.6 159.19 236.6C157.46 236.6 156.01 237 154.83 237.8C153.66 238.6 152.77 239.67 152.17 241C151.57 242.33 151.27 243.78 151.27 245.34V260H150.37Z" fill="#4A4656"/>
    <path d="M182.32 260L172.9 234.7H175.92L183.66 256.3L191.38 234.7H194.4L184.98 260H182.32Z" fill="#4A4656"/>
</svg> 